# xmcd CD database file
#
# Track frame offsets:
#	150
#	20675
#	61523
#
# Disc length: 1202 seconds
#
# Revision: 1
# Processed by: cddbd v1.5.1PL0 Copyright (c) Steve Scherf et al.
# Submitted via: CDex 1.51
#
DISCID=1a04b003
DTITLE=田中勝己 - 灼熱のファイヤーダンス
DYEAR=1995
DGENRE=Game
TTITLE0=灼熱のファイヤーダンス extended king version - airplay edit
TTITLE1=灼熱のファイヤーダンス extended king karaoke version - original version
TTITLE2=灼熱のファイヤーダンス acid fire dub
EXTD=YEAR: 1995
EXTT0=
EXTT1=
EXTT2=
PLAYORDER=
